<?xml version="1.0" encoding="UTF-8" ?>
<!DOCTYPE svg PUBLIC "-//W3C//DTD SVG 1.1//EN" "http://www.w3.org/Graphics/SVG/1.1/DTD/svg11.dtd">
<svg width="1024pt" height="1024pt" viewBox="0 0 1024 1024" version="1.1" xmlns="http://www.w3.org/2000/svg">
<g id="#141f31ff">
<path fill="#141f31" opacity="1.00" d=" M 512.27 278.13 C 517.08 283.71 522.28 288.97 528.18 293.42 C 537.35 300.42 548.35 304.79 559.71 306.62 C 578.46 310.00 597.61 308.07 616.53 309.44 C 627.30 310.53 638.21 311.25 648.68 314.24 C 658.02 317.17 667.41 320.83 675.00 327.18 C 674.78 327.50 674.35 328.14 674.14 328.46 C 662.15 328.11 650.07 327.69 638.14 329.15 C 638.05 326.99 638.00 324.82 637.97 322.66 C 637.30 322.78 635.97 323.02 635.31 323.14 C 635.05 325.08 635.08 327.05 635.06 329.01 C 625.97 329.96 616.92 331.70 608.18 334.36 C 596.78 337.48 585.91 342.34 575.77 348.39 C 571.48 351.65 566.30 353.11 560.96 353.28 C 558.69 353.60 556.42 353.92 554.16 354.22 C 534.12 356.90 513.83 357.89 493.64 356.83 C 487.43 356.08 481.17 356.08 474.97 355.26 C 469.71 354.62 464.45 353.98 459.18 353.36 C 454.49 353.24 450.73 350.27 446.72 348.25 C 437.68 343.29 428.26 338.92 418.31 336.12 C 411.49 334.16 404.60 332.38 397.60 331.26 C 391.25 330.06 384.81 329.44 378.39 328.87 C 371.24 325.18 362.79 328.22 355.40 325.62 C 359.41 322.70 363.85 320.47 368.42 318.57 C 385.84 311.73 404.69 309.53 423.27 309.09 C 423.64 309.39 424.37 310.01 424.73 310.32 C 439.13 310.45 453.69 310.14 467.79 306.93 C 469.50 306.69 470.82 305.56 472.11 304.51 C 482.69 301.25 492.97 296.61 501.49 289.42 C 505.42 286.00 509.55 282.66 512.27 278.13 M 512.31 297.69 C 511.02 301.01 511.06 305.60 507.41 307.32 C 504.57 309.04 501.73 311.24 500.55 314.46 C 498.81 319.35 500.31 325.30 504.45 328.53 C 509.64 333.09 518.68 332.30 522.77 326.64 C 526.44 322.14 526.34 314.95 522.36 310.69 C 520.59 308.71 517.98 307.82 516.06 306.04 C 514.14 303.61 513.56 300.46 512.31 297.69 Z" />
<path fill="#141f31" opacity="1.00" d=" M 557.38 359.98 C 559.52 359.75 561.65 359.42 563.80 359.17 L 564.30 360.47 C 566.37 371.01 568.78 381.48 571.18 391.96 C 572.71 398.61 573.86 405.36 575.84 411.90 C 573.07 413.40 570.31 414.91 567.61 416.52 C 561.69 419.71 555.44 422.26 549.14 424.58 C 534.64 429.12 519.34 431.03 504.16 430.22 C 497.71 429.74 491.31 428.78 485.00 427.40 C 482.74 426.79 480.49 426.20 478.24 425.59 C 468.01 422.27 457.84 418.20 448.96 412.04 C 453.51 394.84 456.55 377.28 460.42 359.93 C 463.42 360.20 466.40 360.67 469.41 360.90 C 478.32 361.78 487.23 362.92 496.18 363.02 C 498.23 363.04 500.29 363.12 502.34 363.25 C 520.73 363.90 539.17 362.57 557.38 359.98 Z" />
</g>
<g id="#e6d5b1ff">
<path fill="#e6d5b1" opacity="1.00" d=" M 512.45 267.91 C 517.30 276.03 523.99 282.86 531.43 288.63 C 530.10 288.57 528.76 288.52 527.45 288.71 C 527.20 290.18 528.95 290.89 529.73 291.92 C 529.34 292.30 528.56 293.05 528.18 293.42 C 522.28 288.97 517.08 283.71 512.27 278.13 C 509.55 282.66 505.42 286.00 501.49 289.42 C 501.94 286.98 500.84 285.06 498.69 283.96 C 504.12 279.41 509.01 274.14 512.45 267.91 Z" />
</g>
<g id="#dfc697ff">
<path fill="#dfc697" opacity="1.00" d=" M 475.01 297.01 C 483.60 294.12 491.60 289.60 498.69 283.96 C 500.84 285.06 501.94 286.98 501.49 289.42 C 492.97 296.61 482.69 301.25 472.11 304.51 C 463.94 306.47 455.61 307.93 447.19 308.18 C 443.17 307.34 438.99 308.17 435.03 307.04 C 437.45 302.63 443.21 305.23 446.55 302.10 L 447.40 302.00 C 456.73 301.27 466.11 300.05 475.01 297.01 Z" />
</g>
<g id="#dfc082ff">
<path fill="#dfc082" opacity="1.00" d=" M 527.45 288.71 C 528.76 288.52 530.10 288.57 531.43 288.63 L 531.76 288.64 C 543.57 297.38 558.18 301.02 572.61 302.19 C 568.90 303.34 565.16 304.58 561.23 304.63 C 560.85 305.13 560.09 306.12 559.71 306.62 C 548.35 304.79 537.35 300.42 528.18 293.42 C 528.56 293.05 529.34 292.30 529.73 291.92 C 528.95 290.89 527.20 290.18 527.45 288.71 Z" />
</g>
<g id="#dcaf5fff">
<path fill="#dcaf5f" opacity="1.00" d=" M 512.31 297.69 C 513.56 300.46 514.14 303.61 516.06 306.04 C 517.98 307.82 520.59 308.71 522.36 310.69 C 526.34 314.95 526.44 322.14 522.77 326.64 C 518.68 332.30 509.64 333.09 504.45 328.53 C 500.31 325.30 498.81 319.35 500.55 314.46 C 501.73 311.24 504.57 309.04 507.41 307.32 C 511.06 305.60 511.02 301.01 512.31 297.69 Z" />
</g>
<g id="#101218ff">
</g>
<g id="#e6d1a9ff">
<path fill="#e6d1a9" opacity="1.00" d=" M 423.31 302.78 C 431.06 302.48 438.81 302.34 446.55 302.10 C 443.21 305.23 437.45 302.63 435.03 307.04 C 438.99 308.17 443.17 307.34 447.19 308.18 C 439.24 308.90 431.24 308.65 423.27 309.09 C 404.69 309.53 385.84 311.73 368.42 318.57 C 366.31 317.77 364.13 318.52 362.04 318.92 C 363.00 316.78 364.74 315.29 367.14 315.12 C 367.31 314.42 367.64 313.02 367.81 312.31 C 385.35 305.04 404.54 303.55 423.31 302.78 Z" />
</g>
<g id="#d7aa61ff">
<path fill="#d7aa61" opacity="1.00" d=" M 572.61 302.19 C 592.06 302.90 611.69 302.20 631.02 304.87 C 624.79 306.22 617.88 303.53 612.21 307.20 C 613.67 307.90 615.09 308.67 616.53 309.44 C 597.61 308.07 578.46 310.00 559.71 306.62 C 560.09 306.12 560.85 305.13 561.23 304.63 C 565.16 304.58 568.90 303.34 572.61 302.19 Z" />
</g>
<g id="#18191bff">
<path fill="#18191b" opacity="1.00" d=" M 447.19 308.18 C 455.61 307.93 463.94 306.47 472.11 304.51 C 470.82 305.56 469.50 306.69 467.79 306.93 C 453.69 310.14 439.13 310.45 424.73 310.32 C 424.37 310.01 423.64 309.39 423.27 309.09 C 431.24 308.65 439.24 308.90 447.19 308.18 Z" />
</g>
<g id="#ce9e4bff">
<path fill="#ce9e4b" opacity="1.00" d=" M 612.21 307.20 C 617.88 303.53 624.79 306.22 631.02 304.87 C 644.60 306.29 658.26 309.87 670.16 316.76 C 677.45 321.19 684.41 327.36 687.08 335.72 C 675.00 334.14 662.78 334.05 650.61 334.15 C 659.10 333.06 667.69 334.11 676.22 333.63 C 670.36 331.59 664.03 333.49 657.97 332.97 C 652.00 332.38 646.12 333.60 640.19 333.78 C 640.20 332.64 640.20 331.51 640.19 330.38 C 652.31 328.48 664.58 329.48 676.78 329.30 C 676.23 328.54 675.64 327.84 675.00 327.18 C 667.41 320.83 658.02 317.17 648.68 314.24 C 638.21 311.25 627.30 310.53 616.53 309.44 C 615.09 308.67 613.67 307.90 612.21 307.20 Z" />
</g>
<g id="#e6dcc0ff">
<path fill="#e6dcc0" opacity="1.00" d=" M 340.74 335.57 C 345.42 323.98 356.77 316.96 367.81 312.31 C 367.64 313.02 367.31 314.42 367.14 315.12 C 364.74 315.29 363.00 316.78 362.04 318.92 C 364.13 318.52 366.31 317.77 368.42 318.57 C 363.85 320.47 359.41 322.70 355.40 325.62 C 353.94 326.62 352.48 327.64 351.02 328.65 C 352.51 328.53 354.00 328.43 355.49 328.35 C 354.16 329.92 352.76 331.42 351.26 332.84 C 357.21 333.13 363.95 330.99 369.29 334.37 C 359.78 334.39 350.17 334.06 340.74 335.57 Z" />
</g>
<g id="#cda65aff">
<path fill="#cda65a" opacity="1.00" d=" M 635.31 323.14 C 635.97 323.02 637.30 322.78 637.97 322.66 C 638.00 324.82 638.05 326.99 638.14 329.15 C 650.07 327.69 662.15 328.11 674.14 328.46 C 674.35 328.14 674.78 327.50 675.00 327.18 C 675.64 327.84 676.23 328.54 676.78 329.30 C 664.58 329.48 652.31 328.48 640.19 330.38 C 640.20 331.51 640.20 332.64 640.19 333.78 C 646.12 333.60 652.00 332.38 657.97 332.97 C 664.03 333.49 670.36 331.59 676.22 333.63 C 667.69 334.11 659.10 333.06 650.61 334.15 C 646.47 334.69 642.28 334.74 638.12 334.89 C 638.16 347.74 638.09 360.64 638.80 373.48 C 638.32 373.10 637.37 372.35 636.89 371.98 C 636.90 368.60 637.31 365.15 636.37 361.86 C 635.65 365.69 637.10 370.12 634.53 373.43 C 634.77 360.76 634.92 348.08 634.78 335.42 C 627.26 336.05 619.92 337.94 612.55 339.40 C 609.29 338.63 605.24 341.06 602.81 337.90 C 604.83 337.10 606.58 335.82 608.18 334.36 C 616.92 331.70 625.97 329.96 635.06 329.01 C 635.08 327.05 635.05 325.08 635.31 323.14 Z" />
</g>
<g id="#1d1611ff">
<path fill="#1d1611" opacity="1.00" d=" M 351.02 328.65 C 352.48 327.64 353.94 326.62 355.40 325.62 C 362.79 328.22 371.24 325.18 378.39 328.87 C 370.76 328.70 363.13 327.81 355.49 328.35 C 354.00 328.43 352.51 328.53 351.02 328.65 Z" />
<path fill="#1d1611" opacity="1.00" d=" M 628.83 484.00 C 629.45 471.31 628.71 458.55 630.62 445.95 C 630.30 452.97 629.48 459.98 629.75 467.01 C 629.96 488.43 629.85 509.86 629.64 531.28 C 625.63 534.40 620.05 533.31 615.44 532.47 C 614.33 530.69 615.00 528.18 613.77 526.33 C 614.98 505.52 617.70 484.78 618.96 463.95 C 619.56 458.19 619.51 452.30 621.06 446.68 C 621.87 449.05 621.02 451.55 621.01 453.98 C 620.17 480.06 617.20 506.01 615.65 532.04 C 619.57 532.06 623.50 532.14 627.43 532.27 C 627.59 516.17 628.53 500.09 628.83 484.00 Z" />
</g>
<g id="#e6d09fff">
<path fill="#e6d09f" opacity="1.00" d=" M 355.49 328.35 C 363.13 327.81 370.76 328.70 378.39 328.87 C 384.81 329.44 391.25 330.06 397.60 331.26 C 395.58 331.52 393.67 332.21 391.74 332.80 C 394.92 333.50 398.15 334.06 401.24 335.14 C 400.71 335.23 399.65 335.41 399.12 335.50 C 399.00 335.87 398.77 336.61 398.65 336.98 L 398.24 337.44 C 390.20 336.34 382.15 334.97 374.01 334.87 C 372.45 334.70 370.72 335.08 369.29 334.37 C 363.95 330.99 357.21 333.13 351.26 332.84 C 352.76 331.42 354.16 329.92 355.49 328.35 Z" />
</g>
<g id="#dfbf81ff">
<path fill="#dfbf81" opacity="1.00" d=" M 397.60 331.26 C 404.60 332.38 411.49 334.16 418.31 336.12 C 417.07 336.82 415.82 337.50 414.56 338.13 C 416.92 338.32 419.28 338.76 421.43 339.82 C 420.57 340.22 419.71 340.63 418.86 341.03 C 420.80 341.84 422.83 342.68 424.08 344.49 C 415.77 341.70 407.34 339.15 398.70 337.67 L 398.65 336.98 C 398.77 336.61 399.00 335.87 399.12 335.50 C 399.65 335.41 400.71 335.23 401.24 335.14 C 398.15 334.06 394.92 333.50 391.74 332.80 C 393.67 332.21 395.58 331.52 397.60 331.26 Z" />
</g>
<g id="#dabb7bff">
<path fill="#dabb7b" opacity="1.00" d=" M 575.77 348.39 C 585.91 342.34 596.78 337.48 608.18 334.36 C 606.58 335.82 604.83 337.10 602.81 337.90 C 605.24 341.06 609.29 338.63 612.55 339.40 C 600.32 342.97 588.56 347.99 577.53 354.40 C 576.45 353.87 575.37 353.34 574.29 352.82 C 574.79 351.35 575.28 349.86 575.77 348.39 Z" />
</g>
<g id="#d8b572ff">
<path fill="#d8b572" opacity="1.00" d=" M 418.31 336.12 C 428.26 338.92 437.68 343.29 446.72 348.25 C 450.73 350.27 454.49 353.24 459.18 353.36 C 458.05 353.56 456.93 353.79 455.82 354.04 C 455.47 355.68 455.03 357.30 454.52 358.90 C 444.28 354.55 434.89 348.31 424.30 344.74 L 424.08 344.49 C 422.83 342.68 420.80 341.84 418.86 341.03 C 419.71 340.63 420.57 340.22 421.43 339.82 C 419.28 338.76 416.92 338.32 414.56 338.13 C 415.82 337.50 417.07 336.82 418.31 336.12 Z" />
</g>
<g id="#e3cfa7ff">
<path fill="#e3cfa7" opacity="1.00" d=" M 560.96 353.28 C 566.30 353.11 571.48 351.65 575.77 348.39 C 575.28 349.86 574.79 351.35 574.29 352.82 C 575.37 353.34 576.45 353.87 577.53 354.40 C 575.07 355.82 572.56 357.17 569.90 358.20 C 570.00 361.89 571.23 365.39 571.98 368.97 C 575.34 384.36 578.63 399.76 582.33 415.07 C 579.75 416.74 577.10 418.28 574.48 419.88 C 574.04 419.54 573.16 418.87 572.71 418.53 C 570.94 418.71 569.18 418.88 567.42 419.04 C 567.47 418.41 567.56 417.15 567.61 416.52 C 570.31 414.91 573.07 413.40 575.84 411.90 C 573.86 405.36 572.71 398.61 571.18 391.96 C 568.78 381.48 566.37 371.01 564.30 360.47 C 565.71 357.52 563.90 354.32 560.96 353.28 Z" />
</g>
<g id="#d8b77aff">
<path fill="#d8b77a" opacity="1.00" d=" M 455.82 354.04 C 456.93 353.79 458.05 353.56 459.18 353.36 C 464.45 353.98 469.71 354.62 474.97 355.26 C 475.29 357.01 476.34 358.41 477.65 359.55 C 474.83 359.34 471.99 359.69 469.41 360.90 C 466.40 360.67 463.42 360.20 460.42 359.93 C 456.55 377.28 453.51 394.84 448.96 412.04 C 457.84 418.20 468.01 422.27 478.24 425.59 C 475.69 427.07 473.08 428.44 470.42 429.72 C 460.48 426.08 450.79 421.39 442.31 415.03 C 445.91 401.57 448.26 387.80 451.33 374.21 C 452.45 369.11 453.63 364.03 454.52 358.90 C 455.03 357.30 455.47 355.68 455.82 354.04 Z" />
</g>
<g id="#eddfbdff">
<path fill="#eddfbd" opacity="1.00" d=" M 554.16 354.22 C 556.42 353.92 558.69 353.60 560.96 353.28 C 563.90 354.32 565.71 357.52 564.30 360.47 L 563.80 359.17 C 561.65 359.42 559.52 359.75 557.38 359.98 C 556.04 359.33 554.73 358.64 553.42 357.96 C 554.12 356.81 554.72 355.57 554.16 354.22 Z" />
</g>
<g id="#f6f4eaff">
<path fill="#f6f4ea" opacity="1.00" d=" M 493.64 356.83 C 513.83 357.89 534.12 356.90 554.16 354.22 C 554.72 355.57 554.12 356.81 553.42 357.96 C 554.73 358.64 556.04 359.33 557.38 359.98 C 539.17 362.57 520.73 363.90 502.34 363.25 C 502.06 361.47 501.68 359.72 501.09 358.03 C 500.38 358.06 498.95 358.13 498.24 358.16 C 496.70 357.70 495.19 357.21 493.64 356.83 Z" />
</g>
<g id="#e5cea1ff">
<path fill="#e5cea1" opacity="1.00" d=" M 474.97 355.26 C 481.17 356.08 487.43 356.08 493.64 356.83 C 495.19 357.21 496.70 357.70 498.24 358.16 C 497.26 358.51 496.29 358.87 495.34 359.25 C 495.90 360.43 496.65 361.66 496.18 363.02 C 487.23 362.92 478.32 361.78 469.41 360.90 C 471.99 359.69 474.83 359.34 477.65 359.55 C 476.34 358.41 475.29 357.01 474.97 355.26 Z" />
</g>
<g id="#efe5cbff">
<path fill="#efe5cb" opacity="1.00" d=" M 498.24 358.16 C 498.95 358.13 500.38 358.06 501.09 358.03 C 501.68 359.72 502.06 361.47 502.34 363.25 C 500.29 363.12 498.23 363.04 496.18 363.02 C 496.65 361.66 495.90 360.43 495.34 359.25 C 496.29 358.87 497.26 358.51 498.24 358.16 Z" />
</g>
<g id="#dfb25dff">
<path fill="#dfb25d" opacity="1.00" d=" M 636.37 361.86 C 637.31 365.15 636.90 368.60 636.89 371.98 C 637.37 372.35 638.32 373.10 638.80 373.48 C 639.51 375.80 640.20 378.23 641.82 380.11 C 644.08 382.92 648.01 384.14 649.54 387.58 C 651.62 391.92 651.67 397.56 648.71 401.52 C 646.46 404.55 643.06 406.47 639.64 407.88 C 641.34 409.20 642.80 410.79 644.16 412.46 L 643.12 412.91 C 640.81 414.26 639.09 412.16 637.09 411.44 C 635.13 412.13 633.21 412.96 631.13 413.21 C 631.41 411.90 631.74 410.60 632.10 409.31 C 632.22 408.98 632.45 408.30 632.57 407.97 C 628.32 405.96 624.28 402.82 622.75 398.20 C 621.51 394.06 621.91 389.15 624.79 385.75 C 626.84 382.82 630.67 381.67 632.41 378.49 C 633.44 376.94 633.69 375.06 634.53 373.43 C 637.10 370.12 635.65 365.69 636.37 361.86 Z" />
</g>
<g id="#debe81ff">
<path fill="#debe81" opacity="1.00" d=" M 628.95 411.97 C 629.71 410.78 630.73 409.79 632.10 409.31 C 631.74 410.60 631.41 411.90 631.13 413.21 C 633.21 412.96 635.13 412.13 637.09 411.44 C 639.09 412.16 640.81 414.26 643.12 412.91 C 641.95 414.72 640.25 415.91 638.02 415.41 C 643.60 416.15 649.50 418.44 652.69 423.34 C 646.57 424.70 640.28 424.16 634.07 424.33 C 630.65 424.54 627.48 423.12 624.15 422.68 C 622.98 423.59 622.04 424.77 620.72 425.46 C 622.45 420.14 627.67 416.61 632.96 415.47 C 630.67 415.88 630.04 413.41 628.95 411.97 Z" />
</g>
<g id="#e7ddbcff">
<path fill="#e7ddbc" opacity="1.00" d=" M 549.14 424.58 C 555.44 422.26 561.69 419.71 567.61 416.52 C 567.56 417.15 567.47 418.41 567.42 419.04 C 569.18 418.88 570.94 418.71 572.71 418.53 C 573.16 418.87 574.04 419.54 574.48 419.88 C 568.88 422.59 563.48 425.80 557.57 427.82 C 555.02 425.69 550.85 427.89 549.14 424.58 Z" />
</g>
<g id="#daab59ff">
<path fill="#daab59" opacity="1.00" d=" M 620.72 425.46 C 622.04 424.77 622.98 423.59 624.15 422.68 C 627.48 423.12 630.65 424.54 634.07 424.33 C 640.28 424.16 646.57 424.70 652.69 423.34 C 654.41 428.33 653.79 433.94 651.52 438.65 C 650.54 438.94 649.61 439.61 648.57 439.58 C 640.89 438.31 633.03 439.78 625.34 438.53 C 623.87 438.01 622.96 436.59 621.76 435.68 C 621.47 435.63 620.90 435.51 620.61 435.45 L 620.48 435.43 C 620.03 432.19 619.62 428.90 620.34 425.67 L 620.72 425.46 Z" />
</g>
<g id="#f6f4eeff">
<path fill="#f6f4ee" opacity="1.00" d=" M 504.16 430.22 C 519.34 431.03 534.64 429.12 549.14 424.58 C 550.85 427.89 555.02 425.69 557.57 427.82 C 539.47 435.16 519.59 437.58 500.19 436.06 C 500.29 435.60 500.48 434.66 500.58 434.19 C 499.82 433.58 499.07 432.99 498.33 432.39 C 500.26 431.65 502.19 430.87 504.16 430.22 Z" />
</g>
<g id="#e1ca98ff">
<path fill="#e1ca98" opacity="1.00" d=" M 470.42 429.72 C 473.08 428.44 475.69 427.07 478.24 425.59 C 480.49 426.20 482.74 426.79 485.00 427.40 C 485.98 428.18 486.91 429.05 487.82 429.93 C 486.57 430.06 485.32 430.20 484.08 430.33 C 485.34 431.08 486.60 431.82 487.88 432.57 C 487.29 432.89 486.13 433.54 485.55 433.86 C 480.41 432.87 475.40 431.32 470.42 429.72 Z" />
</g>
<g id="#e9d7b0ff">
<path fill="#e9d7b0" opacity="1.00" d=" M 485.00 427.40 C 491.31 428.78 497.71 429.74 504.16 430.22 C 502.19 430.87 500.26 431.65 498.33 432.39 C 499.07 432.99 499.82 433.58 500.58 434.19 C 500.48 434.66 500.29 435.60 500.19 436.06 C 495.25 435.73 490.39 434.81 485.55 433.86 C 486.13 433.54 487.29 432.89 487.88 432.57 C 486.60 431.82 485.34 431.08 484.08 430.33 C 485.32 430.20 486.57 430.06 487.82 429.93 C 486.91 429.05 485.98 428.18 485.00 427.40 Z" />
</g>
<g id="#ceb170ff">
<path fill="#ceb170" opacity="1.00" d=" M 620.61 435.45 C 620.90 435.51 621.47 435.63 621.76 435.68 C 622.96 436.59 623.87 438.01 625.34 438.53 C 633.03 439.78 640.89 438.31 648.57 439.58 C 641.16 441.15 633.49 440.40 625.98 440.15 C 623.22 440.23 621.05 438.08 620.61 435.45 Z" />
</g>
<g id="#dbae57ff">
<path fill="#dbae57" opacity="1.00" d=" M 619.88 443.12 C 621.73 442.60 623.61 441.34 625.60 441.89 C 631.54 443.87 637.91 442.81 644.06 443.03 C 643.72 444.41 643.38 445.80 643.16 447.22 C 643.37 475.15 643.95 503.09 644.59 531.02 L 644.62 531.73 C 639.62 531.73 634.62 531.74 629.64 531.28 C 629.85 509.86 629.96 488.43 629.75 467.01 C 629.48 459.98 630.30 452.97 630.62 445.95 C 628.71 458.55 629.45 471.31 628.83 484.00 C 628.53 500.09 627.59 516.17 627.43 532.27 C 623.50 532.14 619.57 532.06 615.65 532.04 C 617.20 506.01 620.17 480.06 621.01 453.98 C 621.02 451.55 621.87 449.05 621.06 446.68 C 620.73 445.68 620.41 444.68 620.09 443.69 L 619.88 443.12 Z" />
</g>
<g id="#b89d65ff">
<path fill="#b89d65" opacity="1.00" d=" M 625.60 441.89 C 631.39 441.42 637.19 442.32 642.99 441.92 C 646.69 441.76 650.70 440.94 654.02 443.11 L 653.83 443.29 C 653.04 444.02 652.27 444.77 651.51 445.52 L 650.92 446.14 C 650.87 445.38 650.76 443.86 650.71 443.10 C 648.49 443.07 646.27 443.02 644.06 443.03 C 637.91 442.81 631.54 443.87 625.60 441.89 Z" />
</g>
<g id="#c89a48ff">
<path fill="#c89a48" opacity="1.00" d=" M 644.06 443.03 C 646.27 443.02 648.49 443.07 650.71 443.10 C 650.76 443.86 650.87 445.38 650.92 446.14 C 651.32 453.66 653.23 460.99 653.85 468.49 C 652.98 473.19 653.89 477.98 653.70 482.73 C 655.05 492.46 656.52 502.20 657.09 512.02 C 657.45 517.68 658.81 523.29 658.17 528.99 C 655.37 529.01 652.57 528.99 649.77 528.94 C 649.69 525.47 649.35 522.00 648.34 518.68 C 646.92 496.14 646.35 473.54 644.25 451.05 C 643.96 449.75 643.60 448.47 643.16 447.22 C 643.38 445.80 643.72 444.41 644.06 443.03 Z" />
</g>
<g id="#d9b270ff">
<path fill="#d9b270" opacity="1.00" d=" M 614.39 461.89 C 615.11 455.73 614.44 447.76 620.09 443.69 C 620.41 444.68 620.73 445.68 621.06 446.68 C 619.51 452.30 619.56 458.19 618.96 463.95 C 617.70 484.78 614.98 505.52 613.77 526.33 C 611.92 526.46 609.96 526.61 608.31 525.62 C 607.03 524.00 607.65 521.80 608.19 520.04 C 608.25 519.80 608.36 519.31 608.42 519.07 C 610.56 500.06 612.24 480.93 614.39 461.89 Z" />
</g>
<g id="#dfb766ff">
<path fill="#dfb766" opacity="1.00" d=" M 651.51 445.52 C 652.27 444.77 653.04 444.02 653.83 443.29 C 655.27 444.49 656.36 446.03 657.16 447.73 L 657.11 448.26 C 656.63 451.99 657.34 455.72 657.46 459.45 C 657.41 461.21 658.24 462.77 659.15 464.23 C 658.35 466.75 657.74 469.35 656.49 471.71 C 654.97 462.95 653.49 454.19 651.51 445.52 Z" />
<path fill="#dfb766" opacity="1.00" d=" M 487.97 565.69 C 497.78 572.00 505.60 581.14 511.32 591.22 C 511.78 592.95 511.48 594.74 511.26 596.49 C 506.34 585.06 497.21 576.01 487.57 568.41 C 487.67 567.73 487.87 566.37 487.97 565.69 Z" />
</g>
<g id="#2e2021ff">
<path fill="#2e2021" opacity="1.00" d=" M 650.92 446.14 L 651.51 445.52 C 653.49 454.19 654.97 462.95 656.49 471.71 C 659.68 489.71 662.27 507.88 666.20 525.72 C 665.45 526.75 664.76 527.82 664.11 528.92 C 660.59 508.80 657.07 488.66 653.85 468.49 C 653.23 460.99 651.32 453.66 650.92 446.14 Z" />
</g>
<g id="#262528ff">
<path fill="#262528" opacity="1.00" d=" M 643.16 447.22 C 643.60 448.47 643.96 449.75 644.25 451.05 C 646.35 473.54 646.92 496.14 648.34 518.68 C 648.49 522.08 648.63 525.49 648.56 528.91 C 647.23 529.60 645.91 530.30 644.59 531.02 C 643.95 503.09 643.37 475.15 643.16 447.22 Z" />
</g>
<g id="#e3be85ff">
<path fill="#e3be85" opacity="1.00" d=" M 657.11 448.26 C 658.69 450.64 658.68 453.67 659.51 456.35 C 663.81 479.41 669.27 502.24 673.81 525.25 C 671.44 525.85 669.04 526.25 666.66 526.73 L 666.20 525.72 C 662.27 507.88 659.68 489.71 656.49 471.71 C 657.74 469.35 658.35 466.75 659.15 464.23 C 658.24 462.77 657.41 461.21 657.46 459.45 C 657.34 455.72 656.63 451.99 657.11 448.26 Z" />
</g>
<g id="#121314ff">
</g>
<g id="#d3a85fff">
<path fill="#d3a85f" opacity="1.00" d=" M 529.95 472.16 C 536.23 468.36 543.53 466.87 550.70 465.85 C 557.89 465.10 565.15 465.25 572.35 465.85 C 575.50 466.59 580.07 465.66 582.09 468.58 C 574.15 469.79 566.04 469.36 558.09 470.58 C 547.01 472.14 535.60 474.76 526.49 481.63 C 520.45 485.65 516.07 491.47 511.45 496.93 C 503.27 483.77 489.13 475.06 474.03 472.26 C 463.13 469.78 451.89 470.16 440.86 468.91 C 440.96 468.53 441.16 467.79 441.27 467.42 C 454.64 464.96 468.64 464.58 481.93 467.82 C 491.90 470.12 500.71 476.06 507.66 483.44 C 509.14 484.89 510.18 486.92 512.04 487.93 C 517.22 481.87 522.93 476.09 529.95 472.16 Z" />
</g>
<g id="#e6bf72ff">
<path fill="#e6bf72" opacity="1.00" d=" M 653.70 482.73 C 653.89 477.98 652.98 473.19 653.85 468.49 C 657.07 488.66 660.59 508.80 664.11 528.92 C 658.93 529.37 653.74 529.59 648.55 529.79 L 648.56 528.91 C 648.63 525.49 648.49 522.08 648.34 518.68 C 649.35 522.00 649.69 525.47 649.77 528.94 C 652.57 528.99 655.37 529.01 658.17 528.99 C 658.81 523.29 657.45 517.68 657.09 512.02 C 656.52 502.20 655.05 492.46 653.70 482.73 Z" />
</g>
<g id="#d4a95dff">
<path fill="#d4a95d" opacity="1.00" d=" M 420.78 479.46 C 426.70 478.01 432.89 478.60 438.89 479.25 C 458.95 482.36 478.43 490.18 494.52 502.65 C 501.15 507.78 506.82 514.02 511.65 520.85 C 516.67 514.54 521.93 508.35 528.10 503.13 C 543.61 490.10 563.03 482.17 582.96 479.11 C 588.93 478.60 595.10 478.02 601.00 479.26 L 600.93 480.16 C 598.20 481.61 594.92 481.60 591.97 482.42 C 573.67 486.51 555.21 491.85 539.42 502.31 C 528.39 509.52 518.99 519.15 511.72 530.12 C 501.96 515.07 487.69 502.96 471.31 495.66 C 456.90 489.02 441.47 485.03 426.01 481.73 C 424.26 481.06 421.71 481.38 420.78 479.46 Z" />
</g>
<g id="#daad5eff">
<path fill="#daad5e" opacity="1.00" d=" M 367.16 510.53 C 367.05 507.81 368.10 501.57 372.04 503.98 C 410.36 516.26 448.98 527.64 487.07 540.66 C 496.77 544.05 507.48 548.10 512.45 557.86 C 516.19 551.97 520.89 546.36 527.25 543.21 C 534.72 539.40 542.59 536.48 550.33 533.29 C 568.77 526.19 587.23 519.11 605.56 511.72 C 606.67 511.27 607.82 510.91 609.00 510.61 C 608.69 513.42 608.81 516.26 608.42 519.07 C 608.36 519.31 608.25 519.80 608.19 520.04 C 595.56 524.04 583.36 529.33 570.92 533.87 C 557.73 539.33 544.02 543.57 531.32 550.14 C 523.45 554.66 518.19 562.34 512.56 569.22 C 508.68 563.92 504.40 558.80 499.02 554.96 C 492.46 550.44 484.67 548.34 477.27 545.63 C 440.72 533.47 403.81 522.38 367.16 510.53 Z" />
</g>
<g id="#d3a756ff">
<path fill="#d3a756" opacity="1.00" d=" M 594.96 547.60 C 620.67 546.62 646.33 549.15 671.87 551.71 C 670.83 552.69 669.80 553.69 668.76 554.69 L 668.46 554.62 C 665.71 553.96 662.89 553.64 660.06 553.55 C 646.38 552.57 632.71 551.12 618.99 550.69 C 598.07 550.59 576.53 550.40 556.64 557.80 C 550.89 559.65 545.81 562.93 540.55 565.80 C 540.09 565.36 539.16 564.49 538.69 564.05 C 555.21 552.93 575.38 548.85 594.96 547.60 Z" />
</g>
<g id="#ca9b52ff">
<path fill="#ca9b52" opacity="1.00" d=" M 401.95 548.15 C 429.41 546.41 458.50 548.38 482.95 562.19 C 484.61 563.33 486.72 564.09 487.97 565.69 C 487.87 566.37 487.67 567.73 487.57 568.41 C 481.98 564.05 475.21 561.65 468.92 558.51 C 455.56 553.36 441.18 551.65 426.97 551.02 C 422.12 550.65 417.25 550.45 412.40 550.95 C 397.88 550.37 383.44 552.38 368.98 553.45 C 364.85 553.36 360.39 554.60 356.53 552.66 L 356.14 551.69 C 371.41 550.58 386.61 548.32 401.95 548.15 Z" />
</g>
<g id="#ddd2b8ff">
<path fill="#ddd2b8" opacity="1.00" d=" M 368.98 553.45 C 383.44 552.38 397.88 550.37 412.40 550.95 C 408.84 552.53 404.87 552.30 401.21 553.51 C 400.37 553.10 399.51 552.69 398.68 552.30 C 398.61 553.42 398.32 554.78 399.73 555.22 C 405.46 557.71 411.91 556.66 417.98 556.81 C 421.41 556.95 425.25 556.10 428.23 558.28 C 410.42 557.75 392.57 558.48 374.86 560.47 C 375.48 561.50 375.69 562.88 376.81 563.56 C 385.56 564.12 394.23 562.15 402.99 562.41 C 419.42 561.99 435.96 562.30 452.12 565.58 C 451.55 565.78 450.40 566.20 449.83 566.41 C 452.65 567.63 455.73 568.09 458.57 569.26 C 457.91 570.40 457.25 571.56 456.59 572.71 C 431.33 566.29 404.82 566.69 379.13 570.05 C 379.53 571.32 379.90 572.59 380.26 573.88 C 388.20 573.73 396.06 572.23 404.02 572.42 C 421.17 572.18 438.62 572.24 455.32 576.59 C 455.00 577.60 454.68 578.61 454.37 579.63 C 455.51 579.77 456.65 579.93 457.79 580.09 C 457.17 580.93 456.56 581.77 455.95 582.61 C 431.73 576.50 406.31 576.65 381.68 579.96 C 381.75 581.23 381.81 582.51 381.87 583.80 C 394.24 583.18 406.58 582.02 418.98 582.43 C 428.51 582.51 438.15 582.67 447.46 584.99 C 444.70 586.13 441.71 586.41 438.85 587.13 C 443.13 588.34 447.46 589.37 451.85 590.13 C 453.24 590.20 454.06 591.45 455.01 592.29 C 447.37 590.83 439.76 588.94 431.96 588.56 C 424.30 588.31 416.65 587.23 408.98 587.96 C 399.97 588.81 390.83 588.23 381.89 589.83 C 380.15 590.25 380.56 592.35 380.20 593.67 C 405.46 592.59 431.28 590.11 456.07 596.56 C 454.40 597.52 452.75 598.52 451.12 599.55 C 453.92 599.74 456.70 600.45 458.42 602.86 C 450.03 601.19 441.56 599.90 433.06 598.97 C 415.08 598.04 396.99 598.27 379.11 600.32 C 376.94 600.30 376.57 602.62 376.01 604.21 C 383.19 604.51 390.34 603.24 397.54 603.28 C 415.91 601.71 434.43 602.72 452.63 605.59 C 458.11 606.74 463.67 607.82 468.86 610.02 C 466.57 613.56 463.17 616.42 458.70 616.15 C 440.89 610.93 422.04 609.67 403.61 611.47 C 396.17 611.39 388.77 612.41 381.38 613.14 C 373.47 613.43 365.57 613.71 357.75 614.98 C 365.41 606.99 369.97 596.11 370.02 585.00 C 370.08 572.40 363.93 560.37 354.81 551.91 L 356.53 552.66 C 360.39 554.60 364.85 553.36 368.98 553.45 Z" />
</g>
<g id="#dfd7c2ff">
<path fill="#dfd7c2" opacity="1.00" d=" M 412.40 550.95 C 417.25 550.45 422.12 550.65 426.97 551.02 C 441.18 551.65 455.56 553.36 468.92 558.51 C 466.34 558.75 464.63 560.48 464.05 562.92 C 465.87 564.05 467.95 564.52 470.02 565.01 C 471.94 565.40 472.27 567.67 473.17 569.09 C 459.26 562.04 443.71 559.05 428.23 558.28 C 425.25 556.10 421.41 556.95 417.98 556.81 C 411.91 556.66 405.46 557.71 399.73 555.22 C 398.32 554.78 398.61 553.42 398.68 552.30 C 399.51 552.69 400.37 553.10 401.21 553.51 C 404.87 552.30 408.84 552.53 412.40 550.95 Z" />
</g>
<g id="#ebe1ccff">
<path fill="#ebe1cc" opacity="1.00" d=" M 556.64 557.80 C 576.53 550.40 598.07 550.59 618.99 550.69 C 632.71 551.12 646.38 552.57 660.06 553.55 C 662.89 553.64 665.71 553.96 668.46 554.62 C 660.62 562.30 656.17 573.14 655.78 584.06 C 655.41 595.29 659.93 606.45 667.56 614.63 C 664.91 616.00 661.94 614.59 659.18 614.40 C 650.38 612.83 641.44 612.64 632.58 611.67 C 611.25 610.41 589.34 609.13 568.61 615.39 C 554.57 618.92 540.28 625.92 532.64 638.79 C 526.05 638.61 519.57 637.03 512.95 637.37 C 506.05 636.97 499.28 638.54 492.42 638.84 C 485.38 626.57 471.87 619.83 458.70 616.15 C 463.17 616.42 466.57 613.56 468.86 610.02 C 476.87 612.94 485.27 615.18 492.38 620.07 C 492.48 620.43 492.69 621.14 492.79 621.50 C 493.09 621.40 493.70 621.22 494.01 621.13 C 494.30 621.56 494.87 622.42 495.15 622.84 C 497.87 622.18 500.17 623.79 502.28 625.27 C 501.82 621.93 500.54 618.78 498.29 616.25 C 498.84 615.77 499.94 614.82 500.48 614.34 C 501.27 615.36 501.70 616.52 501.78 617.82 C 501.92 617.29 502.07 616.77 502.23 616.26 C 496.83 608.97 491.38 601.50 484.02 596.05 C 475.79 589.57 466.08 585.15 455.95 582.61 C 456.56 581.77 457.17 580.93 457.79 580.09 C 456.65 579.93 455.51 579.77 454.37 579.63 C 454.68 578.61 455.00 577.60 455.32 576.59 C 467.09 579.65 479.06 583.75 488.52 591.63 C 490.98 594.47 494.64 595.60 497.92 597.18 C 497.05 595.53 496.17 593.90 495.27 592.29 C 496.98 592.62 498.68 592.96 500.40 593.28 C 500.23 592.90 499.89 592.13 499.73 591.75 C 492.57 582.47 484.03 573.90 473.17 569.09 C 472.27 567.67 471.94 565.40 470.02 565.01 C 467.95 564.52 465.87 564.05 464.05 562.92 C 464.63 560.48 466.34 558.75 468.92 558.51 C 475.21 561.65 481.98 564.05 487.57 568.41 C 497.21 576.01 506.34 585.06 511.26 596.49 C 511.58 606.69 511.71 617.01 513.13 627.09 C 513.45 619.71 514.36 612.36 514.20 604.96 C 514.32 600.29 513.87 595.30 516.22 591.05 C 517.31 588.39 519.91 586.15 519.52 583.07 L 519.47 582.19 C 522.08 578.62 525.35 575.62 528.33 572.38 C 528.80 572.65 529.74 573.18 530.21 573.44 C 534.00 571.41 537.05 568.27 540.55 565.80 C 545.81 562.93 550.89 559.65 556.64 557.80 M 561.92 564.18 C 553.15 567.63 544.05 571.33 537.11 577.89 C 534.30 578.46 532.78 581.05 530.88 582.92 C 530.03 583.94 528.83 584.82 528.55 586.21 C 528.03 589.93 524.12 592.14 524.06 596.04 C 526.72 593.72 528.79 590.84 531.11 588.20 C 532.98 585.98 535.33 584.21 537.04 581.85 C 543.31 576.43 550.93 572.92 558.41 569.51 C 568.93 564.71 580.56 563.37 591.97 562.52 C 610.35 561.76 628.80 562.29 647.06 564.55 C 649.31 564.90 650.60 562.29 650.96 560.44 C 642.01 559.64 633.09 558.50 624.09 558.42 C 603.30 558.06 581.83 557.08 561.92 564.18 M 546.56 581.44 C 541.15 584.73 535.57 588.28 532.06 593.69 C 547.39 582.24 565.85 575.07 584.92 573.32 C 593.21 571.93 601.64 572.31 610.01 572.31 C 621.74 572.38 633.53 572.54 645.13 574.41 C 645.91 572.94 646.60 571.43 647.19 569.88 C 639.15 568.81 631.06 568.57 622.97 568.30 C 612.98 567.58 602.93 567.42 592.96 568.35 C 576.80 569.09 560.36 572.70 546.56 581.44 M 553.41 587.54 C 541.76 593.41 530.89 602.12 525.06 614.01 C 530.03 607.06 536.53 601.27 543.81 596.82 C 558.47 587.53 575.87 583.95 592.94 582.50 C 610.01 581.98 627.10 582.35 644.15 583.18 C 644.18 582.28 644.22 580.47 644.24 579.56 C 638.02 578.38 631.68 578.67 625.40 578.27 C 619.30 577.41 613.13 577.83 606.99 577.72 C 588.76 577.53 570.06 579.68 553.41 587.54 M 545.00 601.92 C 537.00 607.05 528.88 613.20 525.02 622.17 C 527.10 620.17 528.59 617.67 530.61 615.62 C 540.12 606.86 552.16 601.59 564.22 597.35 C 590.61 590.10 618.29 592.09 645.26 593.93 C 645.51 592.12 645.97 588.65 643.23 588.78 C 631.15 588.21 619.09 587.35 606.99 587.59 C 585.65 587.59 563.58 590.78 545.00 601.92 M 555.34 606.37 C 546.06 609.54 537.34 614.43 530.05 621.01 C 548.58 609.54 570.42 604.43 591.98 602.87 C 611.12 601.99 630.31 602.68 649.35 604.43 C 648.75 603.00 649.19 600.19 646.99 600.12 C 638.00 599.25 628.99 598.42 619.94 598.49 C 598.24 597.93 575.79 598.11 555.34 606.37 Z" />
</g>
<g id="#cf9c4eff">
<path fill="#cf9c4e" opacity="1.00" d=" M 374.86 560.47 C 392.57 558.48 410.42 557.75 428.23 558.28 C 443.71 559.05 459.26 562.04 473.17 569.09 C 484.03 573.90 492.57 582.47 499.73 591.75 C 497.56 591.36 496.43 589.36 494.93 588.00 C 482.84 577.14 468.29 568.47 452.12 565.58 C 435.96 562.30 419.42 561.99 402.99 562.41 C 394.23 562.15 385.56 564.12 376.81 563.56 C 375.69 562.88 375.48 561.50 374.86 560.47 Z" />
</g>
<g id="#d69f4dff">
<path fill="#d69f4d" opacity="1.00" d=" M 561.92 564.18 C 581.83 557.08 603.30 558.06 624.09 558.42 C 633.09 558.50 642.01 559.64 650.96 560.44 C 650.60 562.29 649.31 564.90 647.06 564.55 C 628.80 562.29 610.35 561.76 591.97 562.52 C 580.56 563.37 568.93 564.71 558.41 569.51 C 550.93 572.92 543.31 576.43 537.04 581.85 C 535.74 582.23 534.44 582.57 533.14 582.91 C 534.46 581.23 535.76 579.53 537.11 577.89 C 544.05 571.33 553.15 567.63 561.92 564.18 Z" />
</g>
<g id="#bea771ff">
<path fill="#bea771" opacity="1.00" d=" M 528.33 572.38 C 531.23 569.00 534.96 566.43 538.69 564.05 C 539.16 564.49 540.09 565.36 540.55 565.80 C 537.05 568.27 534.00 571.41 530.21 573.44 C 529.74 573.18 528.80 572.65 528.33 572.38 Z" />
</g>
<g id="#e9dfc1ff">
<path fill="#e9dfc1" opacity="1.00" d=" M 449.83 566.41 C 450.40 566.20 451.55 565.78 452.12 565.58 C 468.29 568.47 482.84 577.14 494.93 588.00 C 496.43 589.36 497.56 591.36 499.73 591.75 C 499.89 592.13 500.23 592.90 500.40 593.28 C 498.68 592.96 496.98 592.62 495.27 592.29 C 496.17 593.90 497.05 595.53 497.92 597.18 C 494.64 595.60 490.98 594.47 488.52 591.63 C 489.20 591.67 490.58 591.75 491.27 591.78 C 481.43 582.82 469.41 576.26 456.59 572.71 C 457.25 571.56 457.91 570.40 458.57 569.26 C 455.73 568.09 452.65 567.63 449.83 566.41 Z" />
</g>
<g id="#d09d55ff">
<path fill="#d09d55" opacity="1.00" d=" M 379.13 570.05 C 404.82 566.69 431.33 566.29 456.59 572.71 C 469.41 576.26 481.43 582.82 491.27 591.78 C 490.58 591.75 489.20 591.67 488.52 591.63 C 479.06 583.75 467.09 579.65 455.32 576.59 C 438.62 572.24 421.17 572.18 404.02 572.42 C 396.06 572.23 388.20 573.73 380.26 573.88 C 379.90 572.59 379.53 571.32 379.13 570.05 Z" />
</g>
<g id="#d5a054ff">
<path fill="#d5a054" opacity="1.00" d=" M 546.56 581.44 C 560.36 572.70 576.80 569.09 592.96 568.35 C 602.93 567.42 612.98 567.58 622.97 568.30 C 631.06 568.57 639.15 568.81 647.19 569.88 C 646.60 571.43 645.91 572.94 645.13 574.41 C 633.53 572.54 621.74 572.38 610.01 572.31 C 601.64 572.31 593.21 571.93 584.92 573.32 C 565.85 575.07 547.39 582.24 532.06 593.69 C 535.57 588.28 541.15 584.73 546.56 581.44 Z" />
</g>
<g id="#cf9a4bff">
<path fill="#cf9a4b" opacity="1.00" d=" M 381.68 579.96 C 406.31 576.65 431.73 576.50 455.95 582.61 C 466.08 585.15 475.79 589.57 484.02 596.05 C 491.38 601.50 496.83 608.97 502.23 616.26 C 502.07 616.77 501.92 617.29 501.78 617.82 C 501.70 616.52 501.27 615.36 500.48 614.34 C 493.06 606.40 484.96 598.85 475.30 593.68 C 466.71 588.97 457.09 586.46 447.46 584.99 C 438.15 582.67 428.51 582.51 418.98 582.43 C 406.58 582.02 394.24 583.18 381.87 583.80 C 381.81 582.51 381.75 581.23 381.68 579.96 Z" />
</g>
<g id="#d6b789ff">
<path fill="#d6b789" opacity="1.00" d=" M 530.88 582.92 C 532.78 581.05 534.30 578.46 537.11 577.89 C 535.76 579.53 534.46 581.23 533.14 582.91 C 534.44 582.57 535.74 582.23 537.04 581.85 C 535.33 584.21 532.98 585.98 531.11 588.20 C 528.79 590.84 526.72 593.72 524.06 596.04 C 524.12 592.14 528.03 589.93 528.55 586.21 C 528.83 584.82 530.03 583.94 530.88 582.92 Z" />
</g>
<g id="#d5a14bff">
<path fill="#d5a14b" opacity="1.00" d=" M 553.41 587.54 C 570.06 579.68 588.76 577.53 606.99 577.72 C 613.13 577.83 619.30 577.41 625.40 578.27 C 631.68 578.67 638.02 578.38 644.24 579.56 C 644.22 580.47 644.18 582.28 644.15 583.18 C 627.10 582.35 610.01 581.98 592.94 582.50 C 575.87 583.95 558.47 587.53 543.81 596.82 C 536.53 601.27 530.03 607.06 525.06 614.01 C 530.89 602.12 541.76 593.41 553.41 587.54 Z" />
</g>
<g id="#d9a45dff">
<path fill="#d9a45d" opacity="1.00" d=" M 512.82 591.53 C 515.61 589.19 515.97 584.25 519.52 583.07 C 519.91 586.15 517.31 588.39 516.22 591.05 C 513.87 595.30 514.32 600.29 514.20 604.96 C 514.36 612.36 513.45 619.71 513.13 627.09 C 511.71 617.01 511.58 606.69 511.26 596.49 C 511.48 594.74 511.78 592.95 511.32 591.22 C 511.69 591.29 512.45 591.45 512.82 591.53 Z" />
</g>
<g id="#e9ddc3ff">
<path fill="#e9ddc3" opacity="1.00" d=" M 447.46 584.99 C 457.09 586.46 466.71 588.97 475.30 593.68 C 484.96 598.85 493.06 606.40 500.48 614.34 C 499.94 614.82 498.84 615.77 498.29 616.25 C 500.54 618.78 501.82 621.93 502.28 625.27 C 500.17 623.79 497.87 622.18 495.15 622.84 C 494.87 622.42 494.30 621.56 494.01 621.13 C 492.30 618.73 489.68 617.28 487.27 615.71 C 478.33 610.05 468.54 605.88 458.42 602.86 C 456.70 600.45 453.92 599.74 451.12 599.55 C 452.75 598.52 454.40 597.52 456.07 596.56 C 467.65 599.63 478.87 604.45 488.73 611.28 C 492.41 613.68 494.91 617.37 498.22 620.20 C 495.21 614.97 490.95 610.52 486.06 607.01 C 476.75 600.24 466.21 595.04 455.01 592.29 C 454.06 591.45 453.24 590.20 451.85 590.13 C 447.46 589.37 443.13 588.34 438.85 587.13 C 441.71 586.41 444.70 586.13 447.46 584.99 Z" />
</g>
<g id="#cc9856ff">
<path fill="#cc9856" opacity="1.00" d=" M 381.89 589.83 C 390.83 588.23 399.97 588.81 408.98 587.96 C 416.65 587.23 424.30 588.31 431.96 588.56 C 439.76 588.94 447.37 590.83 455.01 592.29 C 466.21 595.04 476.75 600.24 486.06 607.01 C 490.95 610.52 495.21 614.97 498.22 620.20 C 494.91 617.37 492.41 613.68 488.73 611.28 C 478.87 604.45 467.65 599.63 456.07 596.56 C 431.28 590.11 405.46 592.59 380.20 593.67 C 380.56 592.35 380.15 590.25 381.89 589.83 Z" />
</g>
<g id="#d7a15aff">
<path fill="#d7a15a" opacity="1.00" d=" M 545.00 601.92 C 563.58 590.78 585.65 587.59 606.99 587.59 C 619.09 587.35 631.15 588.21 643.23 588.78 C 645.97 588.65 645.51 592.12 645.26 593.93 C 618.29 592.09 590.61 590.10 564.22 597.35 C 552.16 601.59 540.12 606.86 530.61 615.62 C 528.59 617.67 527.10 620.17 525.02 622.17 C 528.88 613.20 537.00 607.05 545.00 601.92 Z" />
</g>
<g id="#d9a24bff">
<path fill="#d9a24b" opacity="1.00" d=" M 555.34 606.37 C 575.79 598.11 598.24 597.93 619.94 598.49 C 628.99 598.42 638.00 599.25 646.99 600.12 C 649.19 600.19 648.75 603.00 649.35 604.43 C 630.31 602.68 611.12 601.99 591.98 602.87 C 570.42 604.43 548.58 609.54 530.05 621.01 C 537.34 614.43 546.06 609.54 555.34 606.37 Z" />
</g>
<g id="#ce9c50ff">
<path fill="#ce9c50" opacity="1.00" d=" M 379.11 600.32 C 396.99 598.27 415.08 598.04 433.06 598.97 C 441.56 599.90 450.03 601.19 458.42 602.86 C 468.54 605.88 478.33 610.05 487.27 615.71 C 489.68 617.28 492.30 618.73 494.01 621.13 C 493.70 621.22 493.09 621.40 492.79 621.50 C 492.69 621.14 492.48 620.43 492.38 620.07 C 485.27 615.18 476.87 612.94 468.86 610.02 C 463.67 607.82 458.11 606.74 452.63 605.59 C 434.43 602.72 415.91 601.71 397.54 603.28 C 390.34 603.24 383.19 604.51 376.01 604.21 C 376.57 602.62 376.94 600.30 379.11 600.32 Z" />
</g>
<g id="#d5a755ff">
<path fill="#d5a755" opacity="1.00" d=" M 403.61 611.47 C 422.04 609.67 440.89 610.93 458.70 616.15 C 471.87 619.83 485.38 626.57 492.42 638.84 C 499.28 638.54 506.05 636.97 512.95 637.37 C 519.57 637.03 526.05 638.61 532.64 638.79 C 540.28 625.92 554.57 618.92 568.61 615.39 C 589.34 609.13 611.25 610.41 632.58 611.67 C 641.44 612.64 650.38 612.83 659.18 614.40 C 661.94 614.59 664.91 616.00 667.56 614.63 C 668.99 615.53 670.18 616.74 671.44 617.89 C 654.00 616.12 636.54 614.38 619.01 613.91 C 601.67 613.46 583.95 613.89 567.32 619.38 C 557.76 622.49 548.18 626.71 540.91 633.83 C 538.22 636.33 536.63 639.72 534.85 642.76 C 527.25 642.02 519.65 640.98 512.01 641.06 C 504.70 640.94 497.47 642.08 490.24 642.99 C 486.24 633.30 476.82 627.47 467.67 623.31 C 456.77 618.65 445.12 615.99 433.37 614.60 C 429.62 613.94 425.96 612.77 422.15 612.51 C 415.97 612.25 409.73 612.60 403.61 611.47 Z" />
</g>
<g id="#b98b50ff">
<path fill="#b98b50" opacity="1.00" d=" M 381.38 613.14 C 388.77 612.41 396.17 611.39 403.61 611.47 C 409.73 612.60 415.97 612.25 422.15 612.51 C 425.96 612.77 429.62 613.94 433.37 614.60 C 411.86 613.08 390.33 614.73 368.89 616.33 C 368.44 616.15 367.53 615.79 367.07 615.62 C 371.90 615.21 376.83 615.01 381.38 613.14 Z" />
</g>
<g id="#ca9d66ff">
<path fill="#ca9d66" opacity="1.00" d=" M 357.75 614.98 C 365.57 613.71 373.47 613.43 381.38 613.14 C 376.83 615.01 371.90 615.21 367.07 615.62 C 367.53 615.79 368.44 616.15 368.89 616.33 C 364.02 616.75 359.21 617.58 354.35 618.07 C 355.32 617.04 356.31 616.03 357.31 615.03 L 357.75 614.98 Z" />
</g>
<g id="#c89749ff">
</g>
<g id="#dfa95aff">
</g>
<g id="#d3a84bff">
</g>
<g id="#ddd6c2ff">
</g>
<g id="#ded1b9ff">
</g>
<g id="#d5b45aff">
</g>
<g id="#cf9b53ff">
</g>
<g id="#d5a155ff">
</g>
<g id="#ebddc6ff">
</g>
<g id="#e7dfc2ff">
</g>
<g id="#cd9949ff">
</g>
<g id="#d59e4fff">
</g>
<g id="#e7dbb5ff">
</g>
<g id="#cc9950ff">
</g>
<g id="#d69b52ff">
</g>
<g id="#d9ab59ff">
</g>
<g id="#ce9c4bff">
</g>
<g id="#d7a14dff">
</g>
<g id="#cb9b53ff">
</g>
<g id="#d6a257ff">
</g>
<g id="#ddceb0ff">
</g>
<g id="#ebdfc3ff">
</g>
<g id="#cd9a4aff">
</g>
<g id="#ecddb0ff">
</g>
<g id="#d9a64eff">
</g>
<g id="#c79e56ff">
</g>
<g id="#d1a855ff">
</g>
<g id="#cda661ff">
</g>
<g id="#d3ad63ff">
</g>
<g id="#e0c798ff">
</g>
</svg>
